<?xml version="1.0" encoding="UTF-8"?>
<svg id="Layer_2" data-name="Layer 2" xmlns="http://www.w3.org/2000/svg" viewBox="0 0 682.69 423.08">
  <defs>
    <style>
      .cls-1 {
        fill: none;
        stroke: #000;
        stroke-linecap: round;
        stroke-linejoin: round;
        stroke-width: 18px;
      }
    </style>
  </defs>
  <path id="_01_-_C" data-name="01 - C" class="cls-1" d="M116.49,229.76c-15.68,24.39-94.05,58.29-97.55-3.19-4.92-86.52,124.66-184.41,137.15-159.68,19.35,38.32-60,95.23-72.41,98.42-4.25,1.1,0-5.23,0-5.23"/>
  <path id="_02_-_URTIS" data-name="02 - URTIS" class="cls-1" d="M163.81,150.5s-33.39,40.06-11.61,40.06,50.23-31.65,62.42-48.19c0,0-13.04,37.28,3.19,34.55,27.58-4.65,63.87-32.23,85.65-61.26,0,0-12.19,27.58-27.58,47.32,0,0,19.74-18.87,37.45-50.23,0,0,53.71,21.19,71.13-1.74s47.03-62.13,71.13-95.23c0,0-92.61,105.1-70.26,121.06s85.06-47.03,85.06-47.03c0,0-21.48,30.48,0,29.32s47.32-18,59.23-29.61,29.9-33.39,31.06-36-17.42,2.9-13.65,13.35,15.1,40.65,9,50.52-46.05,12.85-8.13-18c21.77-17.71,32.81-12.48,73.74-37.74"/>
  <path id="_03_-_T_cross_" data-name="03 - T (cross)" class="cls-1" d="M365.01,70.95s38.03-22.94,88.84-23.81"/>
  <path id="_04_-_I_dot_" data-name="04 - I (dot)" class="cls-1" d="M472.86,64.71s1.89-3.56,2.83-4.14"/>
  <path id="_05_-_W" data-name="05 - W" class="cls-1" d="M86.3,284.63c1.16,2.32,34.59-36.94,32.81-58.35-.29-3.48-99.98,109.45-70.26,179.71,6.39,15.1,70.84-105.39,105.68-141.97,0,0-39.8,107.22-1.45,122.23,26.71,10.45,102.77-150.97,67.06-205.55"/>
  <path id="_06_-_ANG" data-name="06 - ANG" class="cls-1" d="M293.73,255.02c-10.45-3.19-52.74,31.51-51.82,60.1.58,18,60.82-40.79,57.19-56.18,0,0-.29,23.52,20.61,22.5,20.9-1.02,49.94-16.69,69.39-47.61,0,0-8.85,24.29-23.95,42.34,0,0,36.15-56.13,46.02-46.11s11.9,33.53,28.6,35.71c16.69,2.18,39.77-19.89,51.97-32.66s50.81-54,50.23-21.92c0,0-4.21-26.42-30.05-.44-25.84,25.98-26.27,44.71-11.9,35.27,14.37-9.44,62.81-55.06,74.9-32.68,7.69,14.24-2.47,38.39-5.66,48.02-3.19,9.63-33.1,85.26-87.1,105s44.56-110.47,189.44-181.02"/>
</svg>